# xmcd
#
# Track frame offsets:
#	150
#	18032
#	36799
#	53947
#	74397
#	88281
#	107200
#	119572
#	131665
#	144626
#	153895
#	164543
#	179715
#	197175
#	214314
#	222900
#	237445
#	252277
#	267837
#	281285
#	297959
#	309272
#
# Disc length: 4372 seconds
#
# Revision: 1
# Processed by: cddbd v1.5PL3 Copyright (c) Steve Scherf et al.
# Submitted via: audiograbber 1.83.01
#
DISCID=57111216
DTITLE=Sandy Posey - 22 All-Time Favorites
DYEAR=2003
DGENRE=Country
TTITLE0=Put Your Arms Around Me
TTITLE1=Beautiful Isle Of Somewhere
TTITLE2=Didn't Leave Nobody But The Baby
TTITLE3=Carry Me Back To Old Virginia
TTITLE4=Down To The River To Pray
TTITLE5=Frankie And Johnny
TTITLE6=It Don't Fit Any More
TTITLE7=When Johnny Comes Marching Home
TTITLE8=18 Wheels Humming Home Sweet Home
TTITLE9=My Country 'Tis Of Thee
TTITLE10=Give Me The Roses While I Live
TTITLE11=I Never Will Marry
TTITLE12=Walk That Lonesome Valley
TTITLE13=Picture Turned Toward The Wall
TTITLE14=Grand Old Flag
TTITLE15=Wayfaring Stranger
TTITLE16=Honey Hungry
TTITLE17=Hello Central, Give Me Heaven
TTITLE18=The Halls Of Montezuma
TTITLE19=Will There Be Any Stars In My Crown? 
TTITLE20=Take Me Out To The Ball Game
TTITLE21=Dixie
EXTD=
EXTT0=
EXTT1=
EXTT2=
EXTT3=
EXTT4=
EXTT5=
EXTT6=
EXTT7=
EXTT8=
EXTT9=
EXTT10=
EXTT11=
EXTT12=
EXTT13=
EXTT14=
EXTT15=
EXTT16=
EXTT17=
EXTT18=
EXTT19=
EXTT20=
EXTT21=
PLAYORDER=
